<svg enable-background="new 0 0 1000 100" viewBox="0 0 1000 100" xmlns="http://www.w3.org/2000/svg"><path d="m506.4 63.5h-84.4c-1.1 0-2-.9-2-2v-23.5c0-1.1.9-2 2-2h84.5c1.1 0 2 .9 2 2v23.6c-.1 1-1 1.9-2.1 1.9z" fill="#fff"/><g fill="#b91732"><path d="m451.6 46c-1 1.1-2.4 2.2-3.8 3v4.5c0 .6-.2.9-.6 1.1-.5.2-1.2.2-2.3.2 0-.3-.2-.8-.4-1h2c.2 0 .3-.1.3-.3v-5c1-.5 2-1.3 2.8-2h-6.7v-1h7.7l.2-.1z"/><path d="m458.2 53.7c0 .4-.1.7-.3.8-.3.2-.6.2-1.1.2 0-.2-.1-.6-.2-.8v.3h-.7v-1.9h-.9c-.1.9-.4 1.9-.8 2.6-.2-.2-.5-.4-.7-.5.7-1.2.8-2.8.8-4v-1.8l-.1.1c-.2-.2-.5-.5-.7-.6.8-.8 1.3-2.1 1.7-3.4l.9.2c-.1.3-.2.5-.3.8h1.4.1l.6.4c-.2.5-.4 1-.6 1.4h1.1v6.2zm-2.8-7.2c-.1.3-.3.7-.5 1h1.3c.2-.3.3-.7.4-1zm.4 4.9v-1.3h-.8v.2 1.1zm-.8-2h.8v-1.2h-.8zm2.4 0v-1.2h-.8v1.2zm-.8.7v1.3h.8v-1.3zm0 3.7h.7c.1 0 .1 0 .1-.1v-1.4h-.8zm4.3-7.7c-.2 1.3-.7 2.3-2 2.9-.1-.2-.3-.5-.6-.7 1.1-.5 1.5-1.2 1.6-2.2h-1.4v-.8h4.7v.4c-.1 1.8-.2 2.5-.4 2.8-.2.2-.3.3-.6.3-.2 0-.7 0-1.1 0 0-.3-.1-.6-.2-.8h.9c.1 0 .2 0 .3-.1s.2-.6.3-1.7h-1.5zm2.6 6.7h-1.8v2h-1v-2h-2.2v-.9h2.2v-1.2h-1.1c-.2.4-.3.7-.5 1-.2-.1-.6-.3-.8-.4.5-.6.8-1.5.9-2.4l.8.2c-.1.3-.1.5-.2.8h.8v-1h1v1h1.5v.9h-1.5v1.2h1.8v.8z"/><path d="m468.2 51.8c.1.3.2.7.4.9-1.8 1.4-2.1 1.7-2.3 1.9-.1-.2-.4-.6-.5-.7.2-.2.5-.6.5-1.1v-3.7h-1.6v-1h2.6v4.5zm-1.2-4.6c-.4-.5-1.1-1.2-1.7-1.7l.6-.7c.6.5 1.4 1.1 1.8 1.6zm7.7 5h-2.6v2.6h-1v-2.6h-2.7v-.9h2.7v-1.3h-2.1v-1h2.1v-1.3h-2.5v-.9h1.4c-.2-.5-.5-1.2-.9-1.7l.9-.3c.4.5.8 1.2.9 1.7l-.8.3h2c.3-.6.7-1.5.9-2.1l1 .3c-.3.6-.6 1.2-.9 1.8h1.2v.9h-2.4v1.3h2v.9h-2v1.3h2.6v1z"/><path d="m475.7 49.6c.2-.7.4-2 .5-2.8l.7.1c0 .9-.2 2.2-.4 3zm2.9-1.5c-.1-.4-.3-1-.6-1.5v8.2h-.9v-10.1h.9v1.8l.6-.3c.2.5.5 1.1.6 1.6zm7.3.1v.8h-7.1v-.8h3v-.6h-2.4v-.7h2.4v-.6h-2.7v-.8h2.7v-.8h1v.8h2.8v.8h-2.8v.6h2.5v.7h-2.5v.6zm-.8 5.5c0 .5-.1.7-.4.9-.3.1-.9.2-1.6.2 0-.3-.2-.6-.3-.9h1.2c.2 0 .2-.1.2-.2v-.6h-3.6v1.7h-.9v-5.3h5.6v4.2zm-4.6-3.5v.7h3.6v-.7zm3.7 2.2v-.7h-3.6v.7z"/></g></svg>