<svg xmlns="http://www.w3.org/2000/svg" width="79.5" height="39.212" viewBox="0 0 79.5 39.212">
  <g id="Group_5885" data-name="Group 5885" transform="translate(-125 -427.2)">
    <g id="Group_5653" data-name="Group 5653" transform="translate(-522.957 115.332)">
      <g id="Group_5242" data-name="Group 5242" transform="translate(647.957 311.868)">
        <g id="Group_5241" data-name="Group 5241">
          <g id="Group_5236" data-name="Group 5236" transform="translate(2.785)">
            <g id="Group_5235" data-name="Group 5235">
              <path id="Path_7020" data-name="Path 7020" d="M671.609,313.94a16.237,16.237,0,0,1,2.087-.182,4.3,4.3,0,0,1,2.021,1.353c.182.487-.429,1.963-2.326,2.269a47.228,47.228,0,0,1-5.89.487c-.305,1.411-1.04,4.414-1.221,5.28,0,.553.041.85.734.792a12.91,12.91,0,0,1,4.843.619,4.76,4.76,0,0,1,2.764,2.945,7.836,7.836,0,0,1,.553,3.622c-.346,1.823-.982,3.8-2.211,4.6a3.476,3.476,0,0,1-3.432.487c-1.411-.429-.239-1.411.924-2.021a9.255,9.255,0,0,0,.8-3.746c0-1.287-.058-1.592-.858-2.326-.561-.52-1.964-.676-4.232-.182-1.105.182-2.269.924-3.069,1.04s-1.716.124-2.087-.487a8.523,8.523,0,0,1-1.106-4.966,18.935,18.935,0,0,1,1.04-4.6c.429-1.427.553-3.68.858-4.538a5.129,5.129,0,0,1,2.145-2.516c.784-.041,2.516,1.9,3.308,2.145Z" transform="translate(-659.89 -311.868)" fill="#71d14e"/>
            </g>
          </g>
          <g id="Group_5238" data-name="Group 5238" transform="translate(20.278 0.554)">
            <g id="Group_5237" data-name="Group 5237">
              <path id="Path_7021" data-name="Path 7021" d="M737.55,317.6c.314-1,1.716-3.127,2.392-3.308a3.43,3.43,0,0,1,3.127,1.163,24.224,24.224,0,0,1,.066,5.09c-.066.8-1.468,7.169-1.84,8.464-.124,2.021-.371,4.719-.487,5.948-.305,2.021-1.964,2.879-2.393,3.374s-1.592.858-2.516-.734a38.077,38.077,0,0,1-1.039-7.417A103.947,103.947,0,0,1,737.55,317.6Z" transform="translate(-734.861 -314.241)" fill="#ffbe2e"/>
            </g>
          </g>
          <g id="Group_5240" data-name="Group 5240" transform="translate(0 19.52)">
            <g id="Group_5239" data-name="Group 5239">
              <path id="Path_7022" data-name="Path 7022" d="M653.08,400.431l1.526-1.782-.4-.19.2-.792-.743.247-.272-.429-.982.982v-2.392l-.676.487-.479-1.039-.412,1.039-.668-.487v2.392l-.982-.982-.272.429-.751-.247.2.792-.4.19,1.534,1.782-.058.784,1.848-.05,1.856.05Z" transform="translate(-647.957 -395.522)" fill="#f73131"/>
            </g>
          </g>
        </g>
      </g>
      <g id="Group_5243" data-name="Group 5243" transform="translate(678.962 313.505)">
        <path id="Path_7023" data-name="Path 7023" d="M784.831,329.647h-4a39.675,39.675,0,0,0,2.138-5.811h3.622A23.161,23.161,0,0,1,784.831,329.647Zm7.723,9.182q-4.051,2.842-11.571,2.918v-3.018q9.584-.729,9.207-4.6v-.755h4.528v.755q-.453,3.647,8.754,4.578V341.8Q796.2,341.545,792.553,338.829Zm-7.547-19.8a18.884,18.884,0,0,1,1.61,3.849h-3.924a23.288,23.288,0,0,0-1.384-3.849Zm16.325,18.111h-4.151v-4.578h-9.534v4.578H783.5v-7.219h17.835Zm-6.213-9.987q-2.717,2.491-8.427,2.616v-2.39q6.389-1.182,6.213-3.9v-.528h4.3v.654q-.226,2.566,6.54,3.5V329.8Q797.534,329.547,795.119,327.157Zm-7.974-5.333a5.274,5.274,0,0,0,2.993-2.943h3.748a6.792,6.792,0,0,1-.377,1.082h9.634v4.6H799.37v-2.213h-7.295a7.688,7.688,0,0,1-4.93,2.314Z" transform="translate(-780.831 -318.881)" fill="#666"/>
        <path id="Path_7024" data-name="Path 7024" d="M894.211,336.827q.956-.5,2.239-1.233v3.471a29.151,29.151,0,0,1-6.314,3.371v-12.98h-1.61v-2.767h5.685Zm-1.157-16.653a39.644,39.644,0,0,1,1.535,4.8h-4.151q-.453-2.038-1.358-4.8Zm2.415,3.773v-2.893h13.609v18.665h2.314v2.893h-6.465V323.947h-3.145v5.308h2.466v2.767h-2.466v10.766h-4.024V332.022h-2.641v-2.767h2.641v-5.308Z" transform="translate(-863.396 -319.872)" fill="#666"/>
      </g>
    </g>
    <g id="Group_5986" data-name="Group 5986" transform="translate(125.5 454.413)">
      <path id="Rectangle_528" data-name="Rectangle 528" d="M457.3,784.258H524.15a6.039,6.039,0,0,1,6.077,6h0a6.039,6.039,0,0,1-6.077,6H457.3a6.039,6.039,0,0,1-6.077-6h0A6.039,6.039,0,0,1,457.3,784.258Z" transform="translate(-451.227 -784.258)" fill="#f2f2f2"/>
      <path id="Path_7228" data-name="Path 7228" d="M1.08-7.89h1.08V0H1.08Zm3.089,0H5.431L9.417-1.5V-7.89h1.015V0h-1.2L5.19-6.386V0H4.169Zm8.321,0h5.473v.967h-4.4v2.4h3.873v.94H13.559V0H12.49Zm10.3-.215a3.612,3.612,0,0,1,3.094,1.343,4.351,4.351,0,0,1,.784,2.68,4.69,4.69,0,0,1-.9,2.938,3.557,3.557,0,0,1-3,1.375A3.589,3.589,0,0,1,19.9-.972,4.543,4.543,0,0,1,18.974-3.9a4.664,4.664,0,0,1,.795-2.739A3.444,3.444,0,0,1,22.787-8.1Zm.107,7.38a2.225,2.225,0,0,0,2.044-1.012,4.309,4.309,0,0,0,.631-2.328,3.321,3.321,0,0,0-.728-2.24,2.484,2.484,0,0,0-1.99-.849,2.591,2.591,0,0,0-2,.841,3.543,3.543,0,0,0-.773,2.479,3.621,3.621,0,0,0,.663,2.21A2.5,2.5,0,0,0,22.895-.725Zm5.421-.446h1.123V0H28.315Zm3.75-.79a1.34,1.34,0,0,0,.768,1.144,1.854,1.854,0,0,0,.795.161A1.492,1.492,0,0,0,34.9-1.2a1.968,1.968,0,0,0,.414-1.214,1.587,1.587,0,0,0-.491-1.246,1.706,1.706,0,0,0-1.179-.44,1.776,1.776,0,0,0-.857.193,1.835,1.835,0,0,0-.61.537l-.838-.048.585-4.141h4v.935H32.651L32.323-4.49a2.4,2.4,0,0,1,.51-.306,2.59,2.59,0,0,1,.994-.177,2.542,2.542,0,0,1,1.794.682,2.256,2.256,0,0,1,.736,1.729,2.968,2.968,0,0,1-.674,1.923,2.607,2.607,0,0,1-2.151.833,2.74,2.74,0,0,1-1.662-.529,2.1,2.1,0,0,1-.808-1.625Zm6.087-3.486v-.741a3.938,3.938,0,0,0,1.461-.341,1.681,1.681,0,0,0,.618-1.131h.763V0H39.962V-5.446Zm6.28,4.275h1.123V0H44.432ZM50.986-8.1a3.233,3.233,0,0,1,2.326.79,2.788,2.788,0,0,1,.918,1.794H53.188a2.169,2.169,0,0,0-.706-1.208A2.239,2.239,0,0,0,51-7.176a2.381,2.381,0,0,0-1.883.819A3.734,3.734,0,0,0,48.4-3.846,3.647,3.647,0,0,0,49.044-1.6a2.261,2.261,0,0,0,1.931.862,2.04,2.04,0,0,0,1.8-.908A3.452,3.452,0,0,0,53.263-2.9H54.3a3.56,3.56,0,0,1-.924,2.089A3.287,3.287,0,0,1,50.846.2a3.346,3.346,0,0,1-2.31-.833,4.338,4.338,0,0,1-1.23-3.4,4.343,4.343,0,0,1,.924-2.863A3.374,3.374,0,0,1,50.986-8.1ZM59.93-3.233l-1.2-3.486L57.459-3.233ZM58.173-7.89h1.208L62.245,0H61.074l-.8-2.363H57.153L56.3,0H55.2Z" transform="translate(9 9.788)" fill="#999"/>
    </g>
  </g>
</svg>
