<svg xmlns="http://www.w3.org/2000/svg" width="62.668" height="20" viewBox="0 0 62.668 20">
  <g id="Group_5730" data-name="Group 5730" transform="translate(-647.957 -311.868)">
    <g id="Group_5242" data-name="Group 5242" transform="translate(647.957 311.868)">
      <g id="Group_5241" data-name="Group 5241">
        <g id="Group_5236" data-name="Group 5236" transform="translate(2.211)">
          <g id="Group_5235" data-name="Group 5235">
            <path id="Path_7020" data-name="Path 7020" d="M669.2,313.511a12.9,12.9,0,0,1,1.657-.144,3.419,3.419,0,0,1,1.6,1.073c.144.386-.341,1.557-1.847,1.8a37.535,37.535,0,0,1-4.677.386c-.242,1.119-.825,3.5-.969,4.188,0,.439.033.674.583.628a10.26,10.26,0,0,1,3.845.491,3.777,3.777,0,0,1,2.194,2.336,6.21,6.21,0,0,1,.439,2.873c-.275,1.446-.78,3.017-1.756,3.645a2.762,2.762,0,0,1-2.725.386c-1.12-.34-.19-1.119.734-1.6a7.334,7.334,0,0,0,.635-2.971c0-1.021-.046-1.263-.681-1.845-.445-.412-1.559-.537-3.361-.144-.878.144-1.8.733-2.437.825s-1.363.1-1.657-.386a6.754,6.754,0,0,1-.878-3.94,15,15,0,0,1,.825-3.645c.341-1.132.439-2.919.681-3.6a4.07,4.07,0,0,1,1.7-2c.622-.033,2,1.505,2.627,1.7Z" transform="translate(-659.89 -311.868)" fill="#71d14e"/>
          </g>
        </g>
        <g id="Group_5238" data-name="Group 5238" transform="translate(16.102 0.44)">
          <g id="Group_5237" data-name="Group 5237">
            <path id="Path_7021" data-name="Path 7021" d="M737,316.9c.249-.792,1.363-2.48,1.9-2.624a2.725,2.725,0,0,1,2.483.923,19.2,19.2,0,0,1,.052,4.038c-.052.635-1.166,5.687-1.461,6.714-.1,1.6-.295,3.743-.386,4.718a4.551,4.551,0,0,1-1.9,2.676c-.341.393-1.264.681-2-.582a30.177,30.177,0,0,1-.825-5.883A82.371,82.371,0,0,1,737,316.9Z" transform="translate(-734.861 -314.241)" fill="#ffbe2e"/>
          </g>
        </g>
        <g id="Group_5240" data-name="Group 5240" transform="translate(0 15.48)">
          <g id="Group_5239" data-name="Group 5239">
            <path id="Path_7022" data-name="Path 7022" d="M652.025,399.42l1.212-1.415-.321-.151.157-.629-.59.2-.216-.341-.78.78v-1.9l-.537.386-.38-.825-.328.825-.531-.386v1.9l-.779-.78-.216.341-.6-.2.157.629-.321.151,1.218,1.415-.046.622L650.6,400l1.474.039Z" transform="translate(-647.957 -395.522)" fill="#f73131"/>
          </g>
        </g>
      </g>
    </g>
    <g id="Group_5243" data-name="Group 5243" transform="translate(672.515 313.168)">
      <path id="Path_7023" data-name="Path 7023" d="M784.007,327.421h-3.176a31.448,31.448,0,0,0,1.7-4.609h2.876A18.357,18.357,0,0,1,784.007,327.421Zm6.132,7.283q-3.216,2.255-9.188,2.314v-2.394q7.61-.579,7.31-3.651v-.6h3.6v.6q-.36,2.893,6.951,3.631v2.454Q793.035,336.858,790.139,334.7ZM784.147,319a14.968,14.968,0,0,1,1.278,3.053h-3.116a18.462,18.462,0,0,0-1.1-3.053Zm12.963,14.366h-3.3v-3.631h-7.57v3.631h-3.3V327.64H797.11Zm-4.934-7.921q-2.157,1.976-6.691,2.075v-1.9q5.073-.938,4.933-3.093v-.419h3.415v.519q-.18,2.035,5.193,2.773v2.135Q794.094,327.341,792.176,325.445Zm-6.332-4.23a4.185,4.185,0,0,0,2.377-2.334H791.2a5.385,5.385,0,0,1-.3.858h7.65v3.651h-3v-1.756h-5.792a6.107,6.107,0,0,1-3.915,1.836Z" transform="translate(-780.831 -318.881)" fill="#666"/>
      <path id="Path_7024" data-name="Path 7024" d="M893.04,333.382q.759-.4,1.777-.978v2.753a23.152,23.152,0,0,1-5.013,2.673v-10.3h-1.278v-2.195h4.514Zm-.919-13.208a31.406,31.406,0,0,1,1.219,3.811h-3.3q-.36-1.616-1.078-3.811Zm1.918,2.993v-2.294h10.806v14.8h1.838v2.295h-5.133v-14.8h-2.5v4.21h1.958v2.195h-1.958v8.54h-3.2v-8.54h-2.1v-2.195h2.1v-4.21Z" transform="translate(-868.572 -319.934)" fill="#666"/>
    </g>
  </g>
</svg>
