<svg enable-background="new 0 0 300 250" viewBox="0 0 300 250" xmlns="http://www.w3.org/2000/svg"><g fill="#fff"><path d="m31.5 26.4c-.8 1.5-1.8 2.9-3 4.1.6 1.7 1.3 2.7 2 2.7.4 0 .6-.9.7-3.1.4.4 1 .8 1.4.9-.3 3.1-.8 3.9-2.3 3.9-1.4 0-2.4-1.2-3.2-3.1-1.1 1-2.3 1.8-3.6 2.4-.3-.4-.7-1-1.2-1.4 1.5-.7 2.9-1.6 4.2-2.8-.4-1.5-.7-3.2-1-5h-4v2.5l3-.6.1 1.5c-1 .2-2.1.5-3.1.7v3.6c0 1-.2 1.5-.9 1.7-.6.3-1.6.3-3.1.3-.1-.5-.4-1.2-.6-1.7h2.4c.3 0 .4-.1.4-.4v-3.2c-1.3.3-2.4.5-3.5.7l-.2-1.5c1.1-.2 2.4-.4 3.9-.7v-2.9h-3.6v-1.6h3.6v-2.4c-1.1.2-2.1.3-3.1.5-.1-.4-.3-1-.5-1.4 2.5-.4 5.4-1 7.1-1.6l1.2 1.4c-.9.3-1.9.5-3 .8v2.8h3.8c-.1-1.6-.2-3.3-.2-5h1.7c0 1.7.1 3.4.2 5h5.1v1.5h-4.9c.2 1.4.4 2.6.6 3.7.8-.9 1.5-1.9 2.1-2.9zm-.9-3.8c-.5-.8-1.7-2.1-2.7-3l1.3-.9c1 .9 2.2 2.1 2.8 2.9z"/><path d="m50 21v.8c-.3 8.1-.5 10.9-1.2 11.8-.5.6-.9.8-1.6.8-.6.1-1.7.1-2.7 0 0-.5-.2-1.2-.5-1.6 1.2.1 2.2.1 2.6.1s.6-.1.8-.3c.6-.6.8-3.3 1-10.1h-4.2c-.5 1.2-1.1 2.2-1.6 3-.3-.3-.9-.7-1.3-.9v8.3h-4.9v1.4h-1.5v-13.2h2c.3-.9.5-2.1.6-2.9l1.8.3c-.3.9-.6 1.9-.9 2.6h2.9v3.4c1.2-1.5 2.1-3.9 2.7-6.3l1.6.4c-.2.8-.5 1.7-.7 2.4zm-13.7 1.6v3.4h3.3v-3.4zm3.4 8.9v-4h-3.3v4zm6-1.5c-.5-1.1-1.7-2.9-2.6-4.2l1.3-.7c1 1.2 2.2 3 2.7 4z"/><path d="m56.1 31.3c.4.2.8.5 1.4.8 1.2.6 2.8.7 4.7.7 2 0 4.7-.1 6.4-.3-.2.4-.4 1.2-.5 1.6-1.2.1-4.2.2-6 .2-2.1 0-3.7-.2-5-.9-.8-.4-1.4-.9-1.8-.9-.6 0-1.5 1-2.5 2.1l-1-1.4c.8-.8 1.7-1.5 2.5-1.8v-5.2h-2.3v-1.5h3.9v6.6zm-.9-8.5c-.5-.8-1.7-2.1-2.6-2.9l1.3-.9c1 .8 2.1 2 2.7 2.8zm7.6 6.2c0 .5.1 1.1.1 1.4-3.7 1-4.3 1.1-4.7 1.4-.1-.4-.5-1-.7-1.3.3-.2.8-.6.8-1.4v-10.1h8.4v6.8l.1-.1 1.3 1c-.9.6-1.8 1.3-2.7 1.8.9.8 1.8 1.6 2.4 2.3l-1.2 1c-1-1.3-3.3-3.3-5.2-4.7l1.1-.8c.6.4 1.2.9 1.8 1.4.8-.5 1.7-1.2 2.3-1.7h-6.6v3.9zm-2.8-8.6v1.4h5v-1.4zm5 4.1v-1.5h-5v1.5z"/><path d="m76 18.9c-.5 1.3-1.2 2.6-1.9 3.8v12h-1.7v-9.6c-.6.8-1.2 1.4-1.8 2-.2-.4-.7-1.3-1-1.7 1.9-1.7 3.7-4.3 4.7-7zm6.3 5.4c1.1 2.7 2.8 5.4 4.6 6.9-.4.3-1 .9-1.3 1.4-1.6-1.5-3.1-4-4.2-6.6v8.8h-1.7v-8.3c-1.2 2.5-2.7 4.8-4.3 6.2-.3-.4-.9-1-1.2-1.3 1.9-1.5 3.7-4.2 4.8-7h-4.1v-1.6h4.8v-4.2h1.7v4.2h5v1.6h-4.1z"/><path d="m92.4 18.6c-.3 1.2-.8 2.4-1.3 3.7v12.5h-1.5v-9.5c-.4.6-.7 1.2-1.1 1.7-.1-.4-.5-1.2-.8-1.6 1.4-1.8 2.5-4.5 3.2-7.1zm4 12c.1.4.3 1 .4 1.3-2.6 1.6-3 1.9-3.3 2.2-.1-.4-.5-1-.8-1.4.3-.2.7-.7.7-1.5v-5.9h-1.7v-1.6h3.1v7.6zm-2-8c-.4-.7-1.3-1.8-2-2.6l1.1-.8c.8.7 1.7 1.8 2.1 2.5zm6.5 2.5c-.5.6-1.1 1.2-1.6 1.8h4.5v7.8h-1.5v-.8h-3.5v.8h-1.4v-6.2c-.4.3-.7.5-1.1.7-.2-.3-.8-1-1.1-1.3 1.3-.8 2.6-1.7 3.7-2.9h-3.2v-1.5h2.7v-2h-2.1v-1.4h2.1v-1.9h1.5v1.9h1.9v.9c.4-.8.8-1.5 1.1-2.4l1.5.4c-.6 1.6-1.4 3.1-2.3 4.4h2.5v1.5h-3.7zm1.4 3.1h-3.5v1.5h3.5zm0 4.3v-1.6h-3.5v1.6zm-2.4-8.9h.3c.5-.6.9-1.3 1.3-2h-1.6z"/><path d="m122.2 19.3v1.4h-4v1.1h-1.7v-1.1h-4.5v1.1h-1.7v-1.1h-3.9v-1.4h3.9v-1.1h1.7v1.1h4.4v-1.1h1.7v1.1zm-7.5 1.8c.3.4.5.9.7 1.3h6.7v1.4h-8.3c-.7.4-1.4.7-2.1 1l4-.1c.5-.2 1-.4 1.5-.7l1.4.8c-1.9.9-3.8 1.6-5.6 2.2l5.5-.2c-.3-.3-.7-.6-1-.8l1.2-.6c1.2.8 2.5 2.1 3.2 2.9l-1.1.7h.1v5.9h-1.8v-.5h-9.3v.5h-1.7v-5.9h12.5c-.2-.3-.6-.6-.9-1-10.1.4-11.1.4-11.8.6 0-.3-.2-.9-.3-1.3.6 0 1.3-.2 2.3-.5.5-.1 1.6-.4 2.8-.9-3.2.2-3.7.3-4.1.4 0-.3-.2-1-.4-1.3.4 0 .8-.2 1.4-.4.3-.1 1.1-.4 1.9-.8h-4.7v-1.4h7c-.1-.4-.3-.8-.5-1.1zm-5.1 8.9v1h3.8v-1zm0 3.1h3.8v-1.1h-3.8zm9.3-3.1h-3.7v1h3.7zm0 3.1v-1.1h-3.7v1.1z"/><path d="m140.6 27c-1.2 4.5-4.3 6.8-8.2 7.9-.2-.4-.6-1-.9-1.4 1.6-.4 3.1-1 4.3-1.9-.5-.5-1.1-1-1.7-1.5l1.2-.8c.5.4 1.2.8 1.7 1.3.7-.7 1.3-1.6 1.6-2.5h-2.7c-.8.9-1.8 1.7-3.1 2.4-.2-.4-.7-.9-1-1.1 2.1-1.1 3.5-2.6 4.3-4-1 .6-2 1.2-3.1 1.5-.2-.4-.6-.9-.9-1.2 1.1-.3 2.2-.9 3.1-1.5-.4-.4-.9-.8-1.4-1.1l1.1-.8c.4.3.9.6 1.4 1 .6-.6 1.2-1.4 1.6-2.2h-2.6c-.7.8-1.5 1.6-2.4 2.3-.3-.3-.7-.8-1.1-1-.1 7.8-.2 10.5-.8 11.3-.4.5-.7.7-1.3.8-.5.1-1.4.1-2.2 0 0-.4-.2-1.1-.5-1.5.8.1 1.6.1 1.9.1s.5-.1.6-.3c.4-.5.5-3.2.6-10.5h-3.5c-.3.6-.6 1.2-.9 1.6h3.4v6.6h-2.8v1.2h-1.3v-6.9c-.3-.3-1-.6-1.4-.8 1.1-1.3 2.1-3.4 2.6-5.4l1.6.4c-.2.6-.4 1.2-.6 1.8h4.4v.8.9c1.8-1.1 3-2.7 3.6-4l1.5.3c-.2.4-.4.7-.6 1h2.3l.3-.1 1.1.4c-.8 2.4-2.2 4.1-3.9 5.3l1.6.3c-.2.4-.4.7-.6 1.1h2.3l.3-.1zm-14.2-2v3.9h1.5v-3.9z"/><path d="m147.6 30.1h-3.4v1.7h-1.5v-11.9h5v10.2zm-3.5-8.7v7.1h1.9v-7.1zm11.2 9.6h-7v-1.5h7zm2.9-5s0 .5-.1.7c-.4 4.8-.8 6.7-1.4 7.3-.4.4-.8.6-1.3.6-.5.1-1.3.1-2.1 0 0-.4-.2-1.1-.5-1.5.8.1 1.5.1 1.9.1.3 0 .5 0 .6-.2.5-.4.8-1.9 1.1-5.6h-7-.4c.2-1.5.5-3.9.6-5.8l1.6.1c-.1 1.3-.3 2.9-.4 4.2h3.7c.2-1.7.4-3.7.6-5.3h-6.3v-1.5h6.6l.3-.1 1.2.1c-.1 1.9-.4 4.5-.7 6.7h2z"/><path d="m165.6 23.2c0-1.1-.7-1.8-2-1.8-1 0-1.8.5-2.6 1.3l-1.2-1.1c1-1.2 2.3-1.9 4-1.9 2.2 0 3.7 1.2 3.7 3.4 0 2.7-3.6 3.2-3.2 5.9h-1.8c-.4-3.1 3.1-3.8 3.1-5.8zm-3.4 8.9c0-.8.6-1.4 1.3-1.4s1.4.6 1.4 1.4-.6 1.4-1.4 1.4-1.3-.6-1.3-1.4z"/></g></svg>