<svg enable-background="new 0 0 1000 100" viewBox="0 0 1000 100" xmlns="http://www.w3.org/2000/svg"><g fill="#fff"><path d="m35 46.9c-1.2 2.3-2.8 4.4-4.7 6.3.9 2.6 2 4.1 3.1 4.1.7 0 1-1.4 1.1-4.8.6.6 1.5 1.2 2.2 1.4-.4 4.7-1.3 6-3.5 6-2.1 0-3.7-1.8-5-4.8-1.7 1.5-3.5 2.7-5.5 3.7-.4-.6-1.1-1.5-1.8-2.1 2.3-1.1 4.4-2.5 6.4-4.2-.7-2.2-1.1-4.9-1.5-7.8h-6.1v3.9l4.6-.9.2 2.3c-1.6.4-3.2.7-4.8 1.1v5.5c0 1.5-.4 2.3-1.3 2.7-1 .4-2.5.5-4.7.5-.1-.7-.6-1.9-1-2.6 1.7.1 3.3.1 3.8 0 .5 0 .7-.2.7-.6v-4.9c-2 .4-3.8.8-5.3 1.1l-.7-2.6c1.6-.3 3.8-.7 6.1-1.1v-4.4h-5.6v-2.4h5.6v-3.8c-1.6.3-3.3.5-4.8.7-.1-.6-.5-1.6-.8-2.1 3.8-.6 8.3-1.5 10.9-2.4l1.8 2.2c-1.4.4-2.9.8-4.6 1.2v4.3h5.9c-.2-2.5-.3-5.1-.4-7.7h2.7c0 2.7.1 5.3.3 7.7h7.9v2.4h-7.6c.3 2.1.6 3.9 1 5.6 1.2-1.4 2.4-2.9 3.2-4.5zm-1.4-5.7c-.8-1.3-2.6-3.3-4.1-4.7l1.9-1.3c1.6 1.3 3.4 3.2 4.3 4.5z"/><path d="m63.4 38.7v1.2c-.4 12.5-.7 16.8-1.8 18.2-.7.9-1.4 1.2-2.4 1.3s-2.6.1-4.2 0c-.1-.7-.4-1.8-.8-2.5 1.8.1 3.4.2 4.1.2.6 0 .9-.1 1.2-.5.9-.9 1.2-5.1 1.6-15.5h-6.5c-.8 1.8-1.6 3.4-2.5 4.7-.4-.4-1.4-1.1-2-1.4v12.6h-7.5v2.1h-2.4v-20.2h3.1c.4-1.3.8-3.2 1-4.5l2.8.5c-.5 1.4-1 2.9-1.4 4h4.4v5.2c1.8-2.4 3.3-6.1 4.1-9.7l2.5.6c-.3 1.3-.7 2.5-1.1 3.8h7.8zm-21 2.4v5.3h5.2v-5.3zm5.2 13.7v-6.1h-5.2v6.1zm9.2-2.2c-.8-1.7-2.6-4.4-4-6.4l2-1.1c1.5 1.9 3.4 4.5 4.2 6.2z"/><path d="m72.8 54.5c.6.3 1.2.8 2.2 1.3 1.8.9 4.2 1.1 7.2 1.1s7.2-.2 9.8-.5c-.3.6-.7 1.8-.7 2.5-1.9.1-6.5.3-9.2.3-3.3 0-5.6-.3-7.6-1.4-1.2-.7-2.1-1.4-2.7-1.4-1 0-2.4 1.5-3.8 3.2l-1.6-2.2c1.3-1.2 2.7-2.3 3.8-2.8v-8h-3.5v-2.4h6v10.3zm-1.3-13.1c-.8-1.3-2.5-3.2-4-4.5l2-1.4c1.5 1.2 3.3 3.1 4.1 4.3zm11.7 9.6c0 .7.1 1.7.1 2.2-5.7 1.5-6.6 1.7-7.3 2.1-.2-.6-.7-1.6-1.1-2 .5-.3 1.2-1 1.2-2.2v-15.5h12.9v10.4l.2-.2 2 1.6c-1.3.9-2.8 2-4.2 2.7 1.4 1.2 2.8 2.5 3.7 3.5l-1.9 1.5c-1.6-2-5.1-5.1-8-7.2l1.7-1.3c.9.6 1.8 1.4 2.8 2.1 1.2-.8 2.6-1.9 3.5-2.7h-10v6zm-4.4-13.3v2.1h7.8v-2.1zm7.8 6.3v-2.2h-7.8v2.2z"/><path d="m103.5 35.4c-.8 2-1.8 4-2.9 5.9v18.5h-2.6v-14.8c-.9 1.2-1.9 2.2-2.8 3.1-.3-.6-1.1-2-1.5-2.7 2.9-2.6 5.6-6.6 7.3-10.8zm9.6 8.4c1.7 4.2 4.3 8.3 7.1 10.6-.6.5-1.5 1.4-1.9 2.1-2.5-2.3-4.7-6.1-6.5-10.1v13.5h-2.5v-12.8c-1.8 3.8-4.1 7.3-6.6 9.6-.4-.6-1.3-1.6-1.9-2 2.9-2.3 5.7-6.5 7.4-10.8h-6.2v-2.5h7.4v-6.4h2.5v6.4h7.6v2.5h-6.4z"/><path d="m128.7 35c-.5 1.9-1.2 3.8-2 5.6v19.2h-2.2v-14.6c-.6.9-1.1 1.8-1.7 2.6-.2-.6-.8-1.9-1.2-2.5 2.1-2.7 3.9-6.9 5-11zm6.1 18.5c.1.6.4 1.5.6 2-4 2.4-4.7 2.9-5.1 3.4-.2-.6-.8-1.6-1.2-2.1.4-.3 1.1-1.1 1.1-2.2v-9h-2.5v-2.5h4.7v11.7zm-3-12.3c-.6-1.1-1.9-2.8-3.1-4l1.7-1.2c1.2 1.1 2.6 2.7 3.2 3.8zm10 3.7c-.8.9-1.6 1.9-2.5 2.7h6.9v12h-2.3v-1.2h-5.3v1.3h-2.2v-9.6c-.6.4-1.1.8-1.7 1.1-.3-.5-1.2-1.5-1.6-1.9 2-1.2 4-2.7 5.6-4.4h-4.9v-2.3h4.1v-3.1h-3.3v-2.2h3.3v-2.9h2.4v2.9h2.9v1.4c.6-1.2 1.2-2.4 1.7-3.6l2.3.6c-1 2.4-2.2 4.7-3.6 6.8h3.8v2.3h-5.6zm2.1 4.8h-5.3v2.4h5.3zm0 6.7v-2.4h-5.3v2.4zm-3.7-13.8h.4c.7-1 1.4-2 2-3.1h-2.5v3.1z"/><path d="m174.5 36.1v2.2h-6.1v1.7h-2.6v-1.7h-6.8v1.7h-2.6v-1.7h-6v-2.2h6v-1.7h2.6v1.7h6.8v-1.7h2.6v1.7zm-11.5 2.7c.4.6.8 1.4 1.1 2h10.3v2.2h-12.8c-1.1.6-2.2 1.1-3.3 1.6l6.1-.2c.7-.3 1.5-.7 2.2-1.1l2.1 1.2c-3 1.4-5.9 2.5-8.7 3.4l8.5-.3c-.5-.5-1.1-.9-1.6-1.3l1.8-1c1.8 1.3 3.9 3.2 4.9 4.5l-1.7 1h.2v9h-2.8v-.8h-14.2v.8h-2.6v-9h19.2c-.4-.4-.9-1-1.4-1.6-15.5.6-17.1.7-18.1 1-.1-.4-.3-1.4-.5-2 .9-.1 2-.3 3.6-.7.8-.2 2.4-.7 4.3-1.3-5 .2-5.8.4-6.3.6-.1-.4-.3-1.5-.6-2 .6-.1 1.2-.2 2.1-.6.5-.2 1.7-.6 2.9-1.2h-7.2v-2.2h10.7c-.2-.6-.5-1.2-.7-1.6zm-7.8 13.8v1.5h5.8v-1.5zm0 4.7h5.8v-1.7h-5.8zm14.2-4.7h-5.8v1.5h5.8zm0 4.7v-1.7h-5.8v1.7z"/><path d="m202.9 47.9c-1.9 6.9-6.6 10.4-12.7 12.1-.3-.6-.9-1.6-1.4-2.1 2.4-.6 4.7-1.5 6.6-2.9-.7-.8-1.7-1.6-2.6-2.2l1.8-1.3c.8.6 1.8 1.3 2.5 2 1.1-1.1 1.9-2.4 2.5-3.9h-4.2c-1.3 1.4-2.8 2.6-4.8 3.7-.3-.6-1.1-1.4-1.6-1.7 3.3-1.7 5.5-4 6.6-6.1-1.5 1-3.1 1.8-4.8 2.4-.3-.6-.9-1.4-1.4-1.9 1.7-.5 3.4-1.3 4.8-2.4-.6-.6-1.4-1.2-2.1-1.6l1.7-1.3c.7.4 1.4 1 2.1 1.5 1-1 1.9-2.1 2.5-3.4h-3.9c-1 1.2-2.3 2.4-3.8 3.5-.4-.5-1.1-1.2-1.7-1.6-.2 12-.4 16.1-1.2 17.3-.6.8-1.1 1.1-2 1.2-.8.1-2.1.1-3.4 0-.1-.6-.3-1.7-.7-2.4 1.3.1 2.4.1 3 .1.4 0 .7-.1.9-.5.6-.8.8-4.9 1-16.2h-5.3c-.4.9-.9 1.8-1.4 2.5h5.2v10.3h-4.1v1.8h-2v-10.6c-.5-.4-1.5-1-2.1-1.3 1.7-2 3.2-5.2 4.1-8.3l2.4.6c-.3.9-.6 1.9-.9 2.7h6.8v1.2 1.4c2.7-1.7 4.6-4.1 5.5-6.1l2.4.4c-.3.6-.6 1.1-.9 1.6h3.5l.5-.1 1.6.6c-1.2 3.7-3.3 6.3-6 8.2l2.4.4c-.3.6-.6 1.1-1 1.7h3.5l.5-.1zm-21.9-3.1v6h2.3v-6z"/><path d="m213.6 52.6h-5.3v2.5h-2.4v-18.1h7.6v15.6zm-5.3-13.2v10.9h3v-10.9zm17.1 14.7h-10.8v-2.3h10.8zm4.5-7.7s0 .7-.1 1.1c-.6 7.3-1.2 10.2-2.2 11.3-.6.6-1.2.9-2 .9-.7.1-2 .1-3.3 0 0-.7-.3-1.7-.7-2.3 1.2.1 2.4.1 2.9.1s.7 0 1-.3c.7-.6 1.2-3 1.7-8.6h-10.8-.7c.3-2.3.7-6 .9-8.9l2.4.2c-.2 2-.4 4.5-.6 6.5h5.7c.3-2.7.6-5.7.9-8.1h-9.6v-2.3h10.1l.4-.1 1.8.2c-.2 2.9-.7 6.9-1.1 10.4h3.3z"/><path d="m241.3 42.1c0-1.7-1-2.8-3-2.8-1.5 0-2.8.7-4 2l-1.8-1.7c1.6-1.8 3.6-3 6.2-3 3.4 0 5.8 1.9 5.8 5.2 0 4.2-5.5 4.9-4.9 9h-2.8c-.9-4.6 4.5-5.7 4.5-8.7zm-5.2 13.7c0-1.2.9-2.1 2-2.1 1.2 0 2.1.9 2.1 2.1s-.9 2.1-2.1 2.1c-1.1 0-2-.9-2-2.1z"/></g></svg>