<svg enable-background="new 0 0 300 250" viewBox="0 0 300 250" xmlns="http://www.w3.org/2000/svg"><g fill="#fff"><path d="m32.3 21.2h-2.1v11.4c0 1.1-.3 1.6-1 1.9-.8.3-2 .3-3.8.3-.1-.5-.4-1.3-.7-1.8 1.4.1 2.9.1 3.3.1s.5-.1.5-.5v-11.4h-12.2v-1.7h16zm-12.6 9.1v1.4h-1.7v-8.2h7.4v6.8zm0-5.2v3.6h4.1v-3.6z"/><path d="m39.5 26.9h1.7v7.9h-1.7v-1.7h-5.3v-1.1h5.3v-1h-4.5v-1.1h4.5v-1h-4.9v-1.1h4.9zm10.5-4.3h-15.5v-1.2h1.7c-.3-.2-.6-.3-.8-.5 1-.8 1.6-1.8 1.9-2.6l1.5.3c-.1.3-.2.5-.4.8h3v-1.1h1.7v1.1h5.6v1.1h-5.6v1h6.9zm-13.7 4v-3.3h12.3v3.3zm1.5-6.1c-.2.3-.5.6-.7 1h4.4v-1zm.1 5h8.9v-1.1h-8.9zm12.5 7.7h-5.4v1.6h-1.7v-7.8h1.7v.9h4.9v1.1h-4.9v1h4.5v1h-4.5v1h5.4z"/><path d="m68 21v.8c-.3 8.1-.5 10.9-1.2 11.8-.5.6-.9.8-1.6.8-.6.1-1.7.1-2.7 0 0-.5-.2-1.2-.5-1.6 1.2.1 2.2.1 2.6.1s.6-.1.8-.3c.6-.6.8-3.3 1-10.1h-4.2c-.5 1.2-1.1 2.2-1.6 3-.3-.3-.9-.7-1.3-.9v8.3h-4.9v1.4h-1.5v-13.2h2c.3-.9.5-2.1.6-2.9l1.8.3c-.3.9-.6 1.9-.9 2.6h2.9v3.4c1.2-1.5 2.1-3.9 2.7-6.3l1.6.4c-.2.8-.5 1.7-.7 2.4zm-13.7 1.6v3.4h3.3v-3.4zm3.4 8.9v-4h-3.3v4zm6-1.5c-.5-1.1-1.7-2.9-2.6-4.2l1.3-.7c1 1.2 2.2 3 2.7 4z"/><path d="m75.4 24.6c-.3 2.5-.7 4.6-1.5 6.3 1.7 1.6 4.1 1.9 6.9 1.9h5.7c-.2.4-.5 1.1-.6 1.5h-5.1c-3.2 0-5.7-.4-7.5-2.1-.6 1-1.3 1.8-2.1 2.5-.2-.3-.9-.9-1.2-1.1.9-.6 1.7-1.5 2.3-2.6-.6-.9-1.2-2.1-1.6-3.5l1.2-.5c.3 1 .6 1.8 1 2.4.4-1.1.7-2.3.9-3.7h-1.9c-.3.2-.8.5-.8.7-.1-.3-.5-1-.7-1.3.3-.1.8-.5 1.2-1.1.3-.4 1.1-1.8 1.7-3.3h-2.9v-1.5h3.5l.6-.2 1 .7c-.8 1.7-1.6 3.3-2.4 4.7h1.1.3zm4.1-3.6h-3.2v-1.3h3.2v-1.4h1.6v1.4h4v2.4h1.1v1.3h-1.1v2.5h-4v1.1h4.3v1.2h-4.3v1.2h4.9v1.3h-4.9v1.5h-1.6v-1.5h-4.2v-1.3h4.2v-1.2h-3.4v-1.2h3.4v-1.1h-3.3v-1.3h3.3v-1.2h-4.3v-1.3h4.3zm1.6 0v1.1h2.5v-1.1zm2.5 2.4h-2.5v1.2h2.5z"/><path d="m94.1 29.8c.1.4.3 1.1.5 1.4-3.2 2.3-3.8 2.7-4.1 3.1-.2-.4-.6-.9-1-1.2.4-.3.8-1 .8-1.9v-5.9h-2.3v-1.6h4v7.4zm-2.8-7.3c-.4-.8-1.4-2-2.1-2.9l1.2-.9c.8.8 1.8 2 2.2 2.8zm12.4-2.8c-.7 4-1.7 7.6-3.8 10.5 1.3 1.4 2.9 2.5 5 3.2-.4.3-.9 1-1.2 1.5-2-.8-3.6-1.9-4.9-3.3-1.3 1.4-2.8 2.5-4.8 3.4-.2-.4-.6-1-1-1.4 2-.8 3.5-2 4.8-3.3-1.9-2.7-3-6.2-3.8-10.4l1.5-.2c.6 3.6 1.6 6.8 3.3 9.2 1.8-2.6 2.6-5.9 3.2-9.4zm-5.2 3.3c-.3-1-1-2.6-1.6-3.9l1.4-.6c.7 1.2 1.5 2.8 1.7 3.8z"/><path d="m21.7 40.4c-.5 1.2-1.1 2.4-1.8 3.6v12.4h-1.6v-9.9c-.6.8-1.2 1.5-1.8 2.1-.2-.4-.6-1.3-.9-1.7 1.8-1.7 3.5-4.2 4.5-6.9zm10.9 11.1h-5.1v4.9h-1.7v-4.9h-4.9v-1.5h4.9v-2.8h-4.2v-1.5h4.2v-5.5h1.7v5.5h4.4v1.5h-4.4v2.8h5.1zm-9.5-6.4c-.2-1-.8-2.6-1.5-3.8l1.4-.5c.7 1.2 1.4 2.8 1.6 3.7zm8.8-3.9c-.6 1.4-1.4 2.9-2 3.9l-1.4-.5c.6-1 1.3-2.7 1.7-3.9z"/><path d="m36.5 44.7c-.5.5-1 1-1.5 1.5-.2-.3-.7-1-1.1-1.4 1.6-1.2 3.2-3.1 4.2-5.1l1.5.5c-.4.8-1 1.7-1.5 2.4v7.4h-1.6zm-2.4 10.2c.7-1 1.4-2.7 1.8-3.9l1.5.6c-.4 1.2-1.1 2.9-1.7 4zm10.6-.4c.9 0 1.1-.3 1.2-2 .4.3 1.1.5 1.5.6-.2 2.4-.7 3-2.6 3h-3.9c-2.3 0-2.9-.5-2.9-2.1v-3h1.7v2.9c0 .5.2.6 1.3.6zm-2.8-11.6c-.6.9-1.2 1.7-1.8 2.3-.3-.3-.9-.8-1.2-1.1 1.2-1 2.2-2.6 2.7-4.2l1.5.4c-.1.4-.3.8-.5 1.2h6.2l.3-.1 1.2.3c-.5 1.1-1 2.3-1.4 3.1l-1.4-.3c.2-.4.5-1 .7-1.6zm1.2 2.4c-.6 1.4-1.6 2.8-2.5 3.7-.3-.3-.9-.8-1.2-1 .9-.8 1.8-2 2.2-3.2zm0 8.1c-.4-.9-1.5-2.2-2.4-3.1l1.3-.7c.9.9 2 2.1 2.5 3zm2.7-5c0 .8-.1 1.2-.7 1.4-.5.2-1.3.3-2.4.3-.1-.4-.3-1.1-.5-1.5h1.7s.3-.1.3-.3v-5h1.6zm2.1-3.6c.9 1.1 1.8 2.5 2.2 3.5l-1.4.7c-.4-1-1.3-2.5-2.1-3.6zm.4 5.9c.8 1.3 1.7 2.9 2 4.1l-1.6.6c-.3-1.1-1-2.8-1.8-4.1z"/><path d="m68.3 53h-7.2v1.7c0 .9-.3 1.2-1 1.4s-1.8.2-3.4.2c-.1-.4-.4-1-.6-1.4 1.1.1 2.4 0 2.7 0s.5-.1.5-.4v-1.5h-7.1v-1.4h7.1v-.9c1-.2 2.1-.5 3.1-.9h-8.4v-1.3h10.6.5l.4-.1 1.1 1c-1.5.8-3.5 1.5-5.4 2.1v.2h7.2v1.3zm-.3-10.3h-15.5v-1.4h6.9c-.1-.4-.3-.9-.5-1.3l1.7-.3c.3.5.5 1.1.7 1.6h6.7zm-13.3 4.8v-3.7h11.3v3.7zm1.6-1.2h7.9v-1.3h-7.9z"/><path d="m83.8 48.8c-.9 1.8-2.2 3.3-3.8 4.4 1.8.7 4 1.2 6.3 1.5-.4.4-.8 1.1-1 1.6-2.7-.4-5-1.1-7-2.1-2.1 1-4.6 1.7-7.1 2.1-.2-.4-.6-1.2-1-1.5 2.4-.3 4.6-.8 6.5-1.6-1.3-.9-2.4-2-3.3-3.3l.3-.1h-.8v-1.5h9.5l.3-.1zm-11.7-.1h-1.6v-3.7h2.7c-.2-.6-.6-1.5-1-2.1l1.5-.4c.5.7 1 1.6 1.2 2.3l-1 .3h3.9c-.1-.7-.4-1.7-.8-2.5l1.5-.3c.4.8.8 1.8.9 2.5l-1.5.2h3.6c.5-.8 1.1-2 1.4-2.9l1.7.5c-.5.8-1 1.7-1.5 2.4h2.9v3.7h-1.6v-2.3h-12.3zm13-7.6c-3.8.8-9.3 1.2-14 1.4 0-.4-.2-1.1-.4-1.4 4.6-.2 10.1-.6 13.2-1.3zm-10 8.6c.8 1 1.9 1.9 3.2 2.6 1.2-.7 2.2-1.6 3-2.6z"/><path d="m92.1 52.9c.4.2.8.5 1.4.8 1.2.6 2.8.7 4.7.7 2 0 4.7-.1 6.4-.3-.2.4-.4 1.2-.5 1.6-1.2.1-4.2.2-6 .2-2.1 0-3.7-.2-5-.9-.8-.4-1.4-.9-1.8-.9-.6 0-1.5 1-2.5 2.1l-1-1.4c.8-.8 1.7-1.5 2.5-1.8v-5.2h-2.2v-1.5h3.9v6.6zm-.9-8.5c-.5-.8-1.7-2.1-2.6-2.9l1.3-.9c1 .8 2.1 2 2.7 2.8zm7.6 6.2c0 .5.1 1.1.1 1.4-3.7 1-4.3 1.1-4.7 1.4-.1-.4-.5-1-.7-1.3.3-.2.8-.6.8-1.4v-10.1h8.4v6.8l.1-.1 1.3 1c-.9.6-1.8 1.3-2.7 1.8.9.8 1.8 1.6 2.4 2.3l-1.2 1c-1-1.3-3.3-3.3-5.2-4.7l1.1-.8c.6.4 1.2.9 1.8 1.4.8-.5 1.7-1.2 2.3-1.7h-6.6v3.9zm-2.8-8.6v1.4h5.1v-1.4zm5 4.1v-1.5h-5v1.5z"/><path d="m112 40.5c-.5 1.3-1.2 2.6-1.9 3.8v12h-1.7v-9.6c-.6.8-1.2 1.4-1.8 2-.2-.4-.7-1.3-1-1.7 1.9-1.7 3.7-4.3 4.7-7zm6.3 5.4c1.1 2.7 2.8 5.4 4.6 6.9-.4.3-1 .9-1.3 1.4-1.6-1.5-3.1-4-4.2-6.6v8.8h-1.7v-8.4c-1.2 2.5-2.7 4.8-4.3 6.2-.3-.4-.9-1-1.2-1.3 1.9-1.5 3.7-4.2 4.8-7h-4.1v-1.6h4.8v-4.2h1.7v4.2h5v1.6z"/><path d="m130.5 53.1h-4.2v1.4h-1.6v-13.2h5.8zm-4.2-10.3v3.5h2.7v-3.5zm2.6 8.8v-3.7h-2.7v3.7zm11.7-6.6h-2v9c0 1.1-.3 1.6-1 1.9s-1.9.3-3.7.3c-.1-.5-.3-1.2-.6-1.7h3c.4 0 .5-.1.5-.5v-9h-5.6v-1.7h5.6v-3.3h1.7v3.3h2v1.7zm-6.3 6.3c-.6-1.1-1.7-2.9-2.6-4.2l1.4-.7c.9 1.3 2.2 3.1 2.8 4.1z"/><path d="m156.1 54.8c.7 0 .8-.4.8-2.9.4.3 1.1.6 1.5.7-.2 3-.6 3.8-2.3 3.8h-2.4c-1.8 0-2.2-.5-2.2-2.3v-5.9h-3c-.3 3.8-1.2 6.7-5.8 8.2-.2-.4-.7-1.1-1-1.4 4.1-1.3 4.7-3.6 5-6.8h-4.6v-1.6h7.1v-6.7h1.7v6.7h7.2v1.6h-4.9v5.8c0 .6.1.7.8.7h2.1zm-10.4-9.1c-.3-1.2-1.2-3-2-4.4l1.5-.6c.9 1.4 1.8 3.2 2.1 4.4zm11.4-4.6c-.8 1.6-1.7 3.3-2.5 4.5l-1.4-.6c.8-1.2 1.7-3.1 2.2-4.5z"/><path d="m19.6 68.1c-.7 1-1.6 2-2.4 2.7h6.6v6.9h-1.3v-.7h-4.5v1h-1.3v-6.8l-.2.1c-.1-.4-.4-1.1-.7-1.5 1-.6 2.3-1.7 3.1-2.8h-2.8v-1.3h1.4c-.1-.5-.4-1.3-.6-1.8l1.1-.3c.3.6.6 1.4.7 1.8l-.9.3h1.7v-2.4c-1 .1-2 .2-3 .2-.1-.3-.2-.8-.4-1.1 2.3-.1 5.2-.5 6.8-.8l.9 1.1c-.8.2-1.8.4-2.9.5v2.6h.5c.3-.7.7-1.7.9-2.3l1.3.4c-.3.7-.6 1.4-.9 1.9h1.2v1.2h-2.6c.9.6 2.4 1.7 2.8 2l-.8 1.3c-.4-.5-1.5-1.4-2.3-2.1v2.4h-1.4zm-1.6 4v1.2h1.7v-1.2zm0 3.7h1.7v-1.3h-1.7zm4.4-3.7h-1.5v1.2h1.5zm0 3.7v-1.3h-1.5v1.3zm5.6.4c0 .7-.1 1.2-.6 1.4-.5.3-1.1.3-2.1.3-.1-.4-.3-1-.5-1.4h1.5c.2 0 .3-.1.3-.3v-4.4c-.6.7-1.3 1.5-1.9 2.1l-.7-1.2c.7-.7 1.7-1.7 2.6-2.8v-6.3h-2.3v-1.4h3.7zm-2.6-10.9c.5 1.1 1 2.6 1.2 3.5l-1.2.4c-.2-.9-.6-2.4-1.1-3.6zm6.7 10.9c0 .8-.1 1.2-.6 1.4-.4.3-1.2.3-2.2.3-.1-.4-.3-1.1-.5-1.5h1.6c.2 0 .3-.1.3-.3v-4.4c-.6.7-1.2 1.3-1.8 1.9l-.7-1.2c.6-.6 1.6-1.6 2.5-2.6v-6.2h-2.2v-1.4h3.6zm-2.7-7.2c-.1-.9-.6-2.4-1-3.5l1.1-.2c.5 1.1.9 2.6 1.1 3.5z"/><path d="m50.3 70.5h-3.9v7.5h-1.7v-7.5h-4.7c-.3 2.8-1.2 5.5-4.4 7.5-.3-.4-.9-1-1.4-1.2 2.8-1.7 3.8-4 4.1-6.3h-4v-1.6h4.2c0-.2 0-.5 0-.7v-4.1h-3.5v-1.6h14.9v1.6h-3.3v4.8h3.9v1.6zm-5.6-1.6v-4.8h-4.6v4.1.7z"/><path d="m61.1 61.5c0 .7 0 1.6-.1 2.7.3 2.3 1.4 9.4 7.6 12.2-.5.4-1 1-1.2 1.4-4.2-2-6.2-6-7.1-9.2-.9 3.4-2.8 7-6.9 9.3-.3-.4-.8-1-1.4-1.3 7.4-3.8 7.2-12.2 7.2-15.1z"/><path d="m86.3 75.8v1.6h-16v-1.6h7.1v-4.1h-5.1v-1.6h5.1v-3.6h-4c-.6 1.1-1.2 2-1.8 2.8-.3-.3-1.1-.8-1.5-1 1.5-1.5 2.6-4 3.3-6.5l1.7.4c-.3.9-.6 1.8-.9 2.7h3.3v-3.3h1.7v3.3h6.3v1.6h-6.3v3.6h5.6v1.6h-5.6v4.1z"/><path d="m90.9 72.7c-.4 1.2-1.1 2.5-1.8 3.3-.3-.2-.8-.6-1.1-.8.7-.7 1.3-1.8 1.6-2.9zm2.3-.9v4.2c0 .7-.1 1.1-.6 1.3s-1.1.3-2 .3c-.1-.4-.3-1-.5-1.4h1.3s.2-.1.2-.2v-4.2h-3.4v-1.4h3.4v-1.6h-3.5v-1.4h2c-.1-.6-.3-1.5-.6-2.3l1.4-.3c.3.7.6 1.7.7 2.3l-1 .3h2.4c.3-.8.7-1.9.9-2.6l1.5.3c-.3.8-.6 1.6-.9 2.3h2.1v1.4h-3.4v1.6h3.2v1.4zm3.1-7.1h-7.9v-1.4h3.3c-.2-.5-.4-1.1-.6-1.5l1.5-.4c.3.6.7 1.3.9 1.9h2.9v1.4zm-1.5 7.6c.6.8 1.2 2 1.5 2.7l-1.2.7c-.3-.8-.9-1.9-1.4-2.8zm9.7-3.3h-1.8v8.9h-1.7v-8.9h-2.3v.4c0 2.6-.2 6.2-1.8 8.4-.3-.3-.9-.8-1.3-1 1.4-2.1 1.5-5.1 1.5-7.4v-6.2c2-.3 4.2-.9 5.5-1.5l1.4 1.3c-1.5.6-3.4 1-5.3 1.3v3.2h5.8z"/><path d="m108.9 64.1c-.6.9-1.2 1.7-1.8 2.3-.3-.3-1-.7-1.4-.9 1.1-1 2.2-2.6 2.8-4.2l1.5.4c-.1.4-.3.7-.5 1h4.3v1.3h-2.7c.3.5.5 1 .7 1.4l-1.5.5c-.2-.5-.5-1.2-.9-1.9h-.5zm13.2 0h-3c.3.4.6.9.8 1.3l-1.5.6c-.2-.5-.7-1.2-1.2-1.9h-1.2c-.3.4-.6.8-1 1.2.3.4.6.8.8 1.2h5.3v4h-11.3c0 .3 0 .7-.1 1h11.8v5.1c0 .7-.1 1-.6 1.2s-1.3.2-2.3.2c0-.4-.3-.8-.4-1.2h1.5c.2 0 .3-.1.3-.3v-1.4h-2.1v2.3h-1.4v-2.3h-1.9v2.3h-1.4v-2.3h-1.9v2.7h-1.5v-6.4c-.2 2.2-.7 4.6-2.3 6.5-.3-.3-.9-.8-1.3-1 2-2.3 2.2-5.2 2.2-7.6v-2.9h1.6 4.1c-.2-.3-.4-.7-.6-1l.8-.3c-.3-.2-.6-.3-.9-.4 1-.8 2-2.1 2.4-3.4l1.6.4c-.1.4-.3.7-.5 1.1h5.3v1.3zm-2.7 3.6h-9.7v1.4h9.7zm-8.2 5v1.3h1.9v-1.2h-1.9zm5.3 1.3v-1.2h-1.9v1.2zm3.4-1.3h-2.1v1.3h2.1z"/><path d="m140.3 76h-7.2v2h-1.8v-2h-7.2v-1.4h7.2v-1.1h-5.2v-5.6h12.2v5.6h-5.3v1.1h7.2v1.4zm0-8.9h-16.1v-1.3h4.3c-.2-.5-.4-.9-.6-1.3l1.4-.3h-4v-1.3h6.1c-.2-.4-.4-.8-.6-1.2l1.7-.4c.3.5.6 1.1.8 1.6h5.8v1.3h-3.9l1.4.3c-.3.5-.5 1-.7 1.4h4.3v1.2zm-12.5 3.1h8.8v-1.1h-8.8zm0 2.2h8.8v-1.1h-8.8zm1.7-8.3c.3.5.6 1.1.8 1.6h3.8c.3-.5.6-1.1.8-1.6z"/></g></svg>