<svg enable-background="new 0 0 1000 100" viewBox="0 0 1000 100" xmlns="http://www.w3.org/2000/svg"><g fill="#fff"><path d="m36.2 22.6h-3.3v17.5c0 1.7-.4 2.5-1.6 2.9-1.2.5-3.1.5-5.9.5-.1-.7-.7-2-1.1-2.8 2.1.1 4.4.1 5.1.1.6 0 .8-.2.8-.8v-17.4h-18.6v-2.6h24.6zm-19.4 14.1v2.2h-2.5v-12.7h11.4v10.4h-8.9zm0-8v5.5h6.4v-5.5z"/><path d="m47.3 31.5h2.5v12.1h-2.5v-2.6h-8.2v-1.7h8.2v-1.5h-6.9v-1.7h6.9v-1.5h-7.5v-1.7h7.5zm16.2-6.7h-23.9v-1.8h2.5c-.4-.3-.9-.5-1.2-.7 1.5-1.2 2.4-2.7 3-4l2.4.4c-.2.4-.4.8-.6 1.2h4.6v-1.7h2.6v1.7h8.6v1.7h-8.6v1.4h10.6zm-21.1 6.2v-5.1h18.9v5.1zm2.3-9.5c-.3.5-.7 1-1.1 1.5h6.8v-1.5zm.2 7.8h13.7v-1.7h-13.7zm19.2 11.8h-8.3v2.5h-2.5v-12.1h2.5v1.4h7.6v1.7h-7.6v1.5h7v1.7h-7v1.5h8.3z"/><path d="m91.1 22.4v1.2c-.4 12.5-.7 16.8-1.8 18.2-.7.9-1.4 1.2-2.4 1.3s-2.6.1-4.2 0c-.1-.7-.4-1.8-.8-2.5 1.8.1 3.4.2 4.1.2.6 0 .9-.1 1.2-.5.9-.9 1.2-5.1 1.6-15.5h-6.5c-.8 1.8-1.6 3.4-2.5 4.7-.4-.4-1.4-1.1-2-1.4v12.7h-7.5v2.1h-2.4v-20.3h3.1c.4-1.3.8-3.2 1-4.5l2.8.5c-.5 1.4-1 2.9-1.4 4h4.4v5.2c1.8-2.4 3.3-6.1 4.1-9.7l2.5.6c-.3 1.3-.7 2.5-1.1 3.8h7.8zm-21 2.4v5.3h5.2v-5.3zm5.2 13.6v-6.1h-5.2v6.1zm9.2-2.1c-.8-1.7-2.6-4.4-4-6.4l2-1.1c1.5 1.9 3.4 4.5 4.2 6.2z"/><path d="m102.6 27.9c-.4 3.9-1.1 7.1-2.3 9.7 2.6 2.4 6.3 3 10.6 3h8.7c-.4.6-.8 1.7-.9 2.4h-7.8c-4.9 0-8.8-.6-11.6-3.2-.9 1.6-2 2.8-3.3 3.8-.4-.5-1.3-1.4-1.9-1.7 1.4-1 2.5-2.3 3.5-4-1-1.4-1.8-3.2-2.5-5.3l1.9-.7c.4 1.5 1 2.7 1.6 3.8.6-1.6 1.1-3.5 1.4-5.7h-2.9c-.5.3-1.2.7-1.2 1-.2-.5-.7-1.5-1.1-2 .5-.1 1.2-.8 1.8-1.7.4-.6 1.7-2.7 2.7-5.1h-4.4v-2.2h5.3l.9-.4 1.6 1c-1.2 2.6-2.5 5.1-3.8 7.2h1.7l.5-.1zm6.3-5.5h-4.9v-2h4.9v-2.2h2.4v2.2h6.1v3.7h1.7v2h-1.7v3.8h-6.1v1.7h6.6v1.9h-6.6v1.8h7.5v2h-7.5v2.4h-2.4v-2.4h-6.4v-2h6.4v-1.8h-5.3v-1.9h5.3v-1.7h-5.1v-2h5.1v-1.8h-6.6v-2h6.6zm2.4 0v1.7h3.8v-1.7zm3.8 3.7h-3.8v1.8h3.8z"/><path d="m131.3 35.9c.2.7.5 1.7.8 2.2-5 3.6-5.8 4.2-6.2 4.8-.3-.6-1-1.4-1.5-1.8.6-.5 1.3-1.5 1.3-3v-9h-3.6v-2.5h6.1v11.4zm-4.2-11.3c-.7-1.2-2.1-3.1-3.3-4.4l1.9-1.4c1.2 1.3 2.7 3.1 3.4 4.2zm18.9-4.3c-1.1 6.1-2.6 11.7-5.9 16.1 2 2.2 4.5 3.8 7.6 5-.6.5-1.4 1.6-1.8 2.3-3.1-1.2-5.5-3-7.6-5.1-1.9 2.1-4.3 3.9-7.4 5.3-.3-.6-1-1.6-1.5-2.1 3-1.3 5.4-3 7.3-5.1-3-4.1-4.7-9.5-5.8-16l2.4-.4c1 5.6 2.5 10.4 5.2 14.1 2.7-4 4.1-9 4.9-14.4zm-7.9 5.1c-.4-1.6-1.5-4.1-2.5-6l2.2-.9c1.1 1.9 2.2 4.3 2.7 5.8z"/><path d="m158.3 19c-.7 1.9-1.7 3.7-2.7 5.5v19h-2.4v-15.3c-.9 1.2-1.8 2.3-2.7 3.2-.2-.6-1-2-1.4-2.6 2.7-2.5 5.3-6.5 6.9-10.6zm16.8 17h-7.9v7.5h-2.6v-7.5h-7.6v-2.4h7.6v-4.3h-6.5v-2.4h6.5v-8.4h2.6v8.4h6.7v2.4h-6.7v4.3h7.9zm-14.5-9.8c-.3-1.5-1.3-4-2.3-5.9l2.2-.8c1.1 1.8 2.1 4.2 2.5 5.8zm13.5-6c-1 2.1-2.1 4.4-3 5.9l-2.1-.8c.9-1.6 2-4.2 2.5-6z"/><path d="m181.1 25.6c-.8.8-1.6 1.6-2.4 2.3-.3-.5-1.1-1.6-1.6-2.1 2.5-1.9 5-4.8 6.5-7.8l2.3.8c-.6 1.3-1.5 2.5-2.3 3.8v11.4h-2.5zm-3.6 15.7c1.1-1.6 2.1-4.1 2.7-6l2.3.9c-.7 1.9-1.6 4.5-2.6 6.2zm16.2-.6c1.4 0 1.7-.4 1.8-3.1.6.4 1.7.8 2.4.9-.3 3.7-1.1 4.5-4 4.5h-6c-3.5 0-4.5-.7-4.5-3.2v-4.5h2.6v4.5c0 .8.3.9 2 .9zm-4.3-17.9c-.9 1.4-1.8 2.6-2.8 3.5-.4-.5-1.4-1.3-1.9-1.6 1.8-1.6 3.4-4 4.2-6.5l2.4.6c-.2.6-.4 1.2-.7 1.8h9.6l.4-.1 1.8.4c-.7 1.6-1.5 3.5-2.2 4.7l-2.2-.5c.3-.6.7-1.6 1.1-2.4h-9.7zm1.8 3.7c-.9 2.1-2.4 4.3-3.9 5.7-.4-.4-1.4-1.2-1.9-1.5 1.4-1.2 2.7-3 3.4-4.9zm.1 12.5c-.6-1.3-2.3-3.4-3.7-4.8l2-1.1c1.4 1.3 3.1 3.3 3.9 4.6zm4.2-7.7c0 1.2-.2 1.8-1.1 2.2-.8.4-2 .4-3.7.4-.1-.7-.5-1.6-.8-2.2h2.7c.3 0 .4-.1.4-.4v-7.7h2.5zm3.2-5.6c1.4 1.6 2.8 3.8 3.4 5.3l-2.2 1.1c-.6-1.5-2-3.8-3.3-5.5zm.7 9.1c1.3 2 2.5 4.5 3 6.3l-2.5 1c-.4-1.7-1.6-4.3-2.8-6.3z"/><path d="m230 38.4h-11v2.7c0 1.3-.4 1.9-1.5 2.2s-2.8.3-5.2.3c-.2-.7-.6-1.5-.9-2.1 1.7.1 3.8.1 4.2.1.5 0 .7-.1.7-.6v-2.6h-10.9v-2.2h10.9v-1.4c1.6-.4 3.2-.8 4.7-1.4h-13v-2h16.4.7l.6-.1 1.6 1.5c-2.3 1.2-5.3 2.4-8.3 3.2v.4h11zm-.4-15.8h-23.9v-2.2h10.6c-.2-.7-.5-1.4-.8-2l2.7-.5c.4.7.8 1.7 1.1 2.4h10.4v2.3zm-20.5 7.3v-5.8h17.4v5.8zm2.5-1.9h12.2v-2h-12.2z"/><path d="m253.9 31.9c-1.3 2.8-3.4 5-5.9 6.7 2.8 1.1 6.1 1.9 9.7 2.3-.6.6-1.2 1.7-1.6 2.4-4.1-.6-7.7-1.6-10.8-3.2-3.2 1.6-7 2.6-10.9 3.2-.2-.7-.9-1.8-1.5-2.3 3.7-.4 7-1.2 9.9-2.4-2-1.4-3.7-3.1-5-5.1l.5-.2h-1.2v-2.3h14.5l.5-.1zm-17.9-.1h-2.4v-5.8h4.2c-.3-1-1-2.3-1.6-3.3l2.2-.6c.7 1.1 1.5 2.5 1.8 3.5l-1.5.5h6c-.1-1-.7-2.7-1.2-3.9l2.3-.5c.6 1.2 1.2 2.8 1.4 3.8l-2.3.6h5.5c.8-1.3 1.7-3.1 2.2-4.5l2.7.7c-.7 1.2-1.5 2.6-2.3 3.7h4.3v5.7h-2.5v-3.5h-18.8zm19.9-11.7c-5.8 1.2-14.3 1.8-21.5 2.1 0-.6-.3-1.6-.6-2.2 7.1-.3 15.5-1 20.3-2zm-15.3 13.2c1.2 1.6 2.9 3 4.8 4.1 1.9-1.1 3.4-2.4 4.6-4.1z"/><path d="m266.7 38.2c.6.3 1.2.8 2.2 1.3 1.8.9 4.2 1.1 7.2 1.1s7.2-.2 9.8-.5c-.3.6-.7 1.8-.7 2.5-1.9.1-6.5.3-9.2.3-3.3 0-5.7-.3-7.6-1.4-1.2-.7-2.1-1.4-2.7-1.4-1 0-2.4 1.5-3.8 3.2l-1.6-2.2c1.3-1.2 2.7-2.3 3.8-2.8v-8h-3.5v-2.4h6v10.3zm-1.4-13.1c-.8-1.3-2.5-3.2-4-4.5l2-1.4c1.5 1.2 3.3 3.1 4.1 4.3zm11.7 9.6c0 .7.1 1.7.1 2.2-5.7 1.5-6.6 1.7-7.3 2.1-.2-.6-.7-1.6-1.1-2 .5-.3 1.2-1 1.2-2.2v-15.5h12.9v10.4l.2-.2 2 1.6c-1.3.9-2.8 2-4.2 2.7 1.4 1.2 2.8 2.5 3.7 3.5l-1.9 1.5c-1.6-2-5.1-5.1-8-7.2l1.7-1.3c.9.6 1.8 1.4 2.8 2.1 1.2-.8 2.6-1.9 3.5-2.7h-10.2v6zm-4.4-13.3v2.1h7.8v-2.1zm7.8 6.3v-2.2h-7.8v2.2z"/><path d="m297.4 19.1c-.8 2-1.8 4-2.9 5.9v18.5h-2.5v-14.8c-.9 1.2-1.9 2.2-2.8 3.1-.3-.6-1.1-2-1.5-2.7 2.9-2.6 5.6-6.6 7.3-10.8zm9.5 8.4c1.7 4.2 4.3 8.3 7.1 10.6-.6.5-1.5 1.4-1.9 2.1-2.5-2.3-4.7-6.1-6.5-10.1v13.5h-2.6v-12.9c-1.8 3.8-4.1 7.3-6.6 9.6-.4-.6-1.3-1.6-1.9-2 2.9-2.3 5.7-6.5 7.4-10.8h-6.2v-2.5h7.4v-6.4h2.5v6.4h7.6v2.5z"/><path d="m325.8 38.5h-6.5v2.2h-2.4v-20.3h8.9zm-6.6-15.8v5.5h4.1v-5.5zm4.2 13.5v-5.7h-4.1v5.7zm17.8-10.2h-3.1v13.9c0 1.7-.4 2.5-1.5 2.9s-2.9.5-5.7.5c-.1-.7-.5-1.9-.9-2.6 2 .1 4.1.1 4.7.1s.8-.2.8-.8v-14h-8.6v-2.5h8.6v-5.1h2.6v5.1h3.1zm-9.6 9.7c-.9-1.6-2.7-4.5-4.1-6.5l2.1-1.1c1.4 2 3.3 4.7 4.2 6.3z"/><path d="m365.2 41.1c1 0 1.2-.6 1.3-4.5.6.4 1.7.9 2.4 1.1-.3 4.6-1 5.8-3.5 5.8h-3.7c-2.7 0-3.4-.8-3.4-3.5v-9.1h-4.6c-.5 5.9-1.8 10.4-8.9 12.7-.3-.7-1-1.7-1.6-2.2 6.4-1.9 7.3-5.6 7.7-10.5h-7.1v-2.5h10.9v-10.3h2.6v10.3h11.1v2.5h-7.6v9.1c0 .9.2 1.1 1.2 1.1zm-16.1-14c-.4-1.8-1.8-4.7-3.1-6.8l2.3-.9c1.4 2.1 2.8 4.8 3.2 6.7zm17.5-7c-1.2 2.4-2.6 5.2-3.8 6.9l-2.2-.9c1.2-1.9 2.6-4.8 3.3-7z"/><path d="m16.6 61.6c-1.1 1.5-2.4 3.1-3.8 4.2h10.2v10.6h-2v-1.1h-6.8v1.4h-2v-10.4l-.2.1c-.2-.7-.6-1.7-1-2.3 1.6-.9 3.5-2.7 4.7-4.3h-4.3v-1.9h2.2c-.2-.7-.6-1.9-1-2.8l1.7-.4c.4.9.9 2.1 1.1 2.8l-1.4.4h2.7v-3.7c-1.6.1-3.1.2-4.6.3-.1-.5-.3-1.2-.6-1.7 3.6-.2 7.9-.7 10.4-1.3l1.3 1.7c-1.3.3-2.8.6-4.5.7v3.9h.7c.5-1 1.1-2.6 1.4-3.6l1.9.6c-.5 1-.9 2.1-1.4 3h1.9v1.9h-4c1.4.9 3.8 2.5 4.4 3l-1.3 2c-.7-.8-2.2-2.2-3.5-3.3v3.7h-2.2zm-2.4 6.2v1.9h2.6v-1.9zm0 5.6h2.6v-2h-2.6zm6.8-5.6h-2.4v1.9h2.4zm0 5.6v-2h-2.4v2zm8.7.6c0 1.1-.2 1.8-.9 2.2s-1.7.4-3.2.4c-.1-.6-.4-1.6-.7-2.2 1 .1 2 .1 2.3 0 .3 0 .4-.1.4-.5v-6.7c-1 1.1-2 2.2-3 3.2l-1.1-1.8c1-1 2.5-2.6 4.1-4.3v-9.7h-3.5v-2.2h5.6zm-4.1-16.8c.7 1.7 1.5 4 1.8 5.3l-1.8.6c-.2-1.4-1-3.7-1.7-5.5zm10.3 16.8c0 1.2-.2 1.9-.9 2.2-.7.4-1.8.5-3.4.5-.1-.6-.4-1.7-.8-2.3 1.1.1 2.2.1 2.5 0 .4 0 .5-.1.5-.5v-6.8c-.9 1-1.9 2-2.7 2.9l-1.1-1.8c1-.9 2.4-2.4 3.8-4v-9.6h-3.4v-2.2h5.6v21.6zm-4.2-11c-.2-1.4-.9-3.7-1.6-5.4l1.7-.4c.7 1.7 1.4 4 1.7 5.3z"/><path d="m63.9 65.3h-5.9v11.5h-2.7v-11.5h-7.3c-.4 4.2-1.9 8.4-6.8 11.5-.4-.6-1.4-1.5-2.1-1.9 4.3-2.7 5.8-6.1 6.2-9.6h-6.2v-2.5h6.4c0-.4 0-.7 0-1v-6.3h-5.5v-2.4h22.9v2.4h-4.9v7.4h5.9zm-8.6-2.4v-7.4h-7.1v6.3 1h7.1z"/><path d="m80.6 51.4c0 1.1-.1 2.5-.2 4.1.4 3.5 2.1 14.5 11.7 18.8-.7.6-1.5 1.5-1.9 2.2-6.5-3.1-9.5-9.2-11-14.1-1.4 5.2-4.3 10.8-10.6 14.3-.4-.7-1.3-1.5-2.1-2 11.3-5.9 11-18.8 11.1-23.2h3z"/><path d="m119.3 73.4v2.5h-24.6v-2.5h11v-6.4h-7.9v-2.5h7.9v-5.5h-6.1c-.9 1.7-1.8 3.1-2.7 4.3-.5-.4-1.7-1.2-2.4-1.6 2.2-2.4 4-6.1 5-10l2.7.6c-.4 1.4-.9 2.8-1.4 4.2h5v-5.2h2.7v5.2h9.6v2.5h-9.6v5.5h8.6v2.5h-8.6v6.4z"/><path d="m126.4 68.7c-.7 1.9-1.7 3.8-2.8 5.1-.4-.4-1.2-.9-1.7-1.2 1.1-1.1 2-2.8 2.5-4.4zm3.5-1.5v6.6c0 1.1-.2 1.7-.9 2-.7.4-1.7.4-3.1.4-.1-.6-.4-1.6-.7-2.2h2s.4-.1.4-.4v-6.5h-5.3v-2.1h5.3v-2.5h-5.5v-2.2h3c-.1-1-.5-2.4-1-3.5l2.1-.5c.5 1.1 1 2.6 1.1 3.6l-1.6.4h3.8c.5-1.2 1.1-2.9 1.4-4l2.4.5c-.5 1.2-1 2.5-1.4 3.5h3.2v2.2h-5.3v2.5h4.9v2.2zm4.8-10.9h-12.2v-2.1h5.1c-.3-.8-.7-1.7-1-2.4l2.3-.6c.5.9 1 2 1.4 2.9h4.5v2.2zm-2.3 11.7c.9 1.3 1.9 3 2.3 4.2l-1.8 1.1c-.4-1.2-1.4-3-2.2-4.3zm14.9-5.1h-2.8v13.7h-2.5v-13.7h-3.5v.6c0 4-.4 9.5-2.8 13-.4-.5-1.4-1.2-2-1.5 2.2-3.2 2.4-7.9 2.4-11.4v-9.6c3.1-.5 6.5-1.4 8.5-2.2l2 1.9c-2.3.9-5.3 1.6-8.1 2v4.8h8.9v2.4z"/><path d="m154.1 55.4c-.9 1.4-1.8 2.6-2.7 3.6-.5-.4-1.5-1.1-2.1-1.4 1.7-1.6 3.3-4 4.2-6.4l2.4.6c-.2.6-.4 1.1-.7 1.6h6.6v2h-4.1c.4.7.8 1.5 1.1 2.1l-2.3.8c-.2-.7-.8-1.9-1.4-2.9zm20.3 0h-4.6c.5.7 1 1.4 1.2 2l-2.3.9c-.3-.8-1-1.9-1.8-2.9h-2c-.5.7-1 1.3-1.6 1.8.4.6.9 1.3 1.2 1.9h8.2v6.1h-17.4c0 .5 0 1-.1 1.6h18.2v7.8c0 1.1-.2 1.6-1 1.9s-1.9.3-3.6.3c-.1-.6-.4-1.3-.7-1.9 1.1.1 2 .1 2.4 0 .3 0 .4-.1.4-.4v-2.1h-3.2v3.6h-2.1v-3.6h-3v3.6h-2.1v-3.6h-3v4.2h-2.3v-9.8c-.3 3.4-1.1 7-3.6 10-.4-.5-1.4-1.3-2-1.6 3-3.6 3.3-8 3.3-11.7v-4.5h2.4 6.3c-.3-.5-.6-1.1-.9-1.5l1.3-.5c-.5-.3-1-.5-1.4-.7 1.6-1.2 3-3.2 3.8-5.2l2.5.6c-.2.6-.5 1.1-.7 1.6h8.2zm-4.1 5.6h-14.9v2.2h14.9zm-12.7 7.7v1.9h3v-1.9zm8.1 1.9v-1.9h-3v1.9zm5.3-1.9h-3.2v1.9h3.2z"/><path d="m202.4 73.7h-11.1v3.1h-2.7v-3.1h-11v-2.1h11v-1.6h-7.9v-8.6h18.8v8.6h-8.1v1.6h11.1v2.1zm0-13.6h-24.8v-2h6.6c-.3-.7-.6-1.4-.9-2l2.2-.5h-6.1v-2h9.4c-.3-.7-.6-1.3-.9-1.9l2.6-.6c.4.7.9 1.7 1.2 2.4h8.9v2h-6l2.2.4c-.4.8-.8 1.5-1.1 2.1h6.6v2.1zm-19.2 4.7h13.6v-1.7h-13.6zm0 3.3h13.6v-1.7h-13.6zm2.6-12.6c.5.7 1 1.7 1.3 2.5h5.9c.4-.8.9-1.7 1.2-2.5z"/></g></svg>