<svg xmlns="http://www.w3.org/2000/svg" width="89.424" height="17.698" viewBox="0 0 89.424 17.698">
  <g id="Group_5663" data-name="Group 5663" transform="translate(-265 -46.151)">
    <g id="Group_106" data-name="Group 106" transform="translate(265 46.151)">
      <g id="Group_105" data-name="Group 105">
        <g id="Group_100" data-name="Group 100" transform="translate(1.962)">
          <g id="Group_99" data-name="Group 99">
            <path id="Path_20" data-name="Path 20" d="M136.413,860.857a13.081,13.081,0,0,1,1.466-.13,2.96,2.96,0,0,1,1.417.954c.13.343-.306,1.38-1.642,1.592a33.686,33.686,0,0,1-4.147.342c-.213.99-.733,3.1-.862,3.712,0,.389.028.592.519.556a9.272,9.272,0,0,1,3.411.435,3.338,3.338,0,0,1,1.956,2.073,5.417,5.417,0,0,1,.39,2.546c-.241,1.278-.7,2.675-1.559,3.231a2.458,2.458,0,0,1-2.412.342c-.993-.3-.167-.991.65-1.417a6.5,6.5,0,0,0,.566-2.628c0-.907-.037-1.12-.6-1.639-.4-.361-1.383-.472-2.978-.13-.779.13-1.6.648-2.158.732s-1.206.083-1.466-.343a6.016,6.016,0,0,1-.779-3.49,13.175,13.175,0,0,1,.733-3.231c.306-1,.39-2.583.6-3.185a3.594,3.594,0,0,1,1.506-1.765c.547-.028,1.772,1.333,2.329,1.509Z" transform="translate(-128.161 -859.415)" fill="#71d14e"/>
          </g>
        </g>
        <g id="Group_102" data-name="Group 102" transform="translate(14.277 0.377)">
          <g id="Group_101" data-name="Group 101">
            <path id="Path_21" data-name="Path 21" d="M178.29,863.244a5.094,5.094,0,0,1,1.688-2.324,2.4,2.4,0,0,1,2.2.815,17.3,17.3,0,0,1,.047,3.573c-.047.565-1.03,5.036-1.3,5.943-.084,1.416-.26,3.314-.343,4.175a4,4,0,0,1-1.688,2.369c-.305.342-1.122.6-1.772-.518a26.907,26.907,0,0,1-.733-5.21A73.451,73.451,0,0,1,178.29,863.244Z" transform="translate(-176.388 -860.892)" fill="#ffbe2e"/>
          </g>
        </g>
        <g id="Group_104" data-name="Group 104" transform="translate(0 13.69)">
          <g id="Group_103" data-name="Group 103">
            <path id="Path_22" data-name="Path 22" d="M124.088,916.621l1.076-1.253-.288-.13.139-.557-.519.176-.195-.306-.687.686V913.56l-.473.343-.344-.733-.288.733-.473-.343v1.679l-.686-.687-.195.306-.529-.176.139.557-.287.129,1.085,1.253-.047.557,1.308-.037,1.308.037Z" transform="translate(-120.479 -913.17)" fill="#f73131"/>
          </g>
        </g>
      </g>
    </g>
    <path id="Path_7125" data-name="Path 7125" d="M-17.264-10.928h-5.552V1.424h1.6V.448h2.32v.976h1.632Zm-3.952,9.776V-9.344h2.32v8.192ZM-28.8-13.1v3.056h-2.368v1.632H-28.8q-.12,6.24-2.736,9.088l1.264,1.12c1.984-2.176,3.04-5.568,3.136-10.208h1.552c-.032,4.224-.08,6.7-.16,7.424A1.051,1.051,0,0,1-26.832.032a12.216,12.216,0,0,1-1.408-.1l.416,1.52c.576.064,1.008.1,1.264.1,1.408,0,2.208-.592,2.368-1.76q.24-1.872.24-9.84h-3.184V-13.1Zm16.832,3.072v1.5h3.12V-6.7h-2.608v1.472h2.608v2.1H-12.4v1.5h8.816v-1.5h-1.5l.784-.352A9,9,0,0,0-5.232-5.12l-1.328.432A8.36,8.36,0,0,1-5.7-3.136H-7.152v-2.1h2.608V-6.7H-7.152V-8.528h3.1v-1.5Zm10.752-2.544H-14.784V1.648h1.7V1.056H-2.912v.592h1.7ZM-13.088-.512v-10.5H-2.912v10.5ZM2.016-12.48v1.632H6.432v.928c-.032.848-.1,1.648-.192,2.416H.992v1.616h4.96a13.425,13.425,0,0,1-.784,2.3A8.826,8.826,0,0,1,.72.192L1.664,1.68a9.476,9.476,0,0,0,4.8-4.032A13.472,13.472,0,0,0,7.68-5.888h.864v5.3c0,1.328.624,2,1.872,2H12.96a2.141,2.141,0,0,0,1.5-.464c.352-.32.608-1.344.752-3.072l-1.568-.528A5.332,5.332,0,0,1,13.3-.5a.745.745,0,0,1-.656.352H10.928c-.48,0-.72-.272-.72-.784v-4.96h4.784V-7.5H7.952c.1-.752.144-1.552.176-2.416v-.928h5.6V-12.48Zm15.024,2.5a19.256,19.256,0,0,1-.56,4.272l1.328.352a25.312,25.312,0,0,0,.5-4.528Zm4.384-.4-1.152.368V-13.1H18.64V1.616h1.632v-11.5a30.509,30.509,0,0,1,.816,3.52l1.3-.352A34.335,34.335,0,0,0,21.424-10.384Zm3.248-2.72v3.7H22.336v1.6h2.272Q24.248-2.12,21.424.624l1.248,1.1q3.168-3.12,3.568-9.536h.576V-.144c0,1.024.448,1.552,1.36,1.552h1.76a1.361,1.361,0,0,0,.992-.5,9.524,9.524,0,0,0,.5-3.04l-1.488-.5a12.888,12.888,0,0,1-.16,2.256c-.08.16-.16.256-.256.256h-.9c-.16,0-.224-.112-.224-.336v-7.36h2.528v-1.6H26.3v-3.7Zm3.472.176L27.056-11.9a13.885,13.885,0,0,1,2.176,2.176l1.136-1.136A14.73,14.73,0,0,0,28.144-12.928Z" transform="translate(323 61)" fill="#555"/>
  </g>
</svg>
